<svg xmlns="http://www.w3.org/2000/svg" width="25" height="23" viewBox="0 0 25 23"><g><g><g><g><path d="M1.487 2.054H4.07L7.75 15.36c.105.39.465.66.87.66H19.93c.36 0 .676-.21.826-.54L24.87 6.02c.12-.285.09-.6-.075-.856a.894.894 0 0 0-.751-.406H11.549a.904.904 0 0 0-.901.901c0 .496.405.902.901.902h11.113l-3.334 7.659H9.296L5.616.913a.901.901 0 0 0-.87-.661H1.487a.904.904 0 0 0-.901.901c0 .496.405.901.901.901z"/></g><g><path d="M7.764 22.358a2.045 2.045 0 0 0 2.043-2.042 2.045 2.045 0 0 0-2.043-2.042 2.045 2.045 0 0 0-2.042 2.042c0 1.126.916 2.042 2.042 2.042z"/></g><g><path d="M20.53 22.358h.15a2.038 2.038 0 0 0 1.397-.705c.36-.406.525-.932.495-1.487a2.047 2.047 0 0 0-2.177-1.892 2.046 2.046 0 0 0 .135 4.084z"/></g></g></g></g></svg>