<svg xmlns="http://www.w3.org/2000/svg" width="25" height="24" viewBox="0 0 25 24" fill="#fff"><g><g><path d="M3.101 4.147c.956-1.05 2.147-1.206 2.773-1.206.408 0 .8.062 1.16.188 2.177.736 3.917 3.51 3.948 3.525a.911.911 0 0 0 .815.438.949.949 0 0 0 .799-.47c.015-.03 1.582-2.694 4.715-3.87.267-.093.596-.156.925-.156 1.16 0 2.334.58 3.149 1.535 1.065 1.254 1.426 3.071 1.05 5.233-.408 2.382-2.35 5.233-5.625 8.257a44.749 44.749 0 0 1-4.512 3.62 47.02 47.02 0 0 1-4.779-3.808C4.104 14.299 2.177 11.4 1.942 9.05c-.204-2.146.188-3.839 1.16-4.904zm8.68 19.02a1 1 0 0 0 .517.157c.172 0 .36-.047.517-.157.423-.282 10.356-6.83 11.484-13.49.58-3.446-.486-5.577-1.473-6.752-1.159-1.379-2.882-2.193-4.59-2.193-.564 0-1.113.094-1.598.282-2.382.893-3.995 2.475-4.873 3.556-.861-1.065-2.334-2.6-4.12-3.212a5.446 5.446 0 0 0-1.77-.282c-1.599 0-3.118.658-4.168 1.818C.782 3.912-.267 5.854.062 9.239c.658 6.659 11.265 13.63 11.719 13.928z"/></g></g></svg>