<svg xmlns="http://www.w3.org/2000/svg" width="15" height="13" viewBox="0 0 15 13"><g><g><path d="M2.53 2.116a2.044 2.044 0 0 1 1.526-.664c.224 0 .439.034.637.103 1.198.405 2.155 1.93 2.172 1.94.095.155.267.25.448.24a.522.522 0 0 0 .44-.258c.008-.017.87-1.482 2.594-2.128.146-.052.327-.087.508-.087.638 0 1.284.32 1.732.845.586.69.785 1.69.578 2.878-.224 1.31-1.293 2.879-3.094 4.542a24.612 24.612 0 0 1-2.482 1.99A25.864 25.864 0 0 1 4.96 9.425C3.082 7.7 2.022 6.106 1.892 4.813c-.112-1.18.104-2.111.638-2.697zm4.775 10.462a.55.55 0 0 0 .284.086.5.5 0 0 0 .284-.086c.233-.155 5.697-3.758 6.317-7.42.32-1.896-.267-3.068-.81-3.715C12.742.685 11.795.237 10.855.237c-.31 0-.612.052-.879.155-1.31.491-2.198 1.362-2.68 1.956C6.822 1.762 6.012.918 5.029.582a2.995 2.995 0 0 0-.974-.156c-.879 0-1.714.362-2.292 1-.508.56-1.086 1.629-.905 3.49.362 3.663 6.197 7.498 6.447 7.662z"/></g></g></svg>