<svg xmlns="http://www.w3.org/2000/svg" width="12" height="18" viewBox="0 0 12 18"><g><g><g><g><path d="M6.017 9.013c-.804 0-1.47-.655-1.47-1.47 0-.814.656-1.47 1.47-1.47s1.47.656 1.47 1.47c0 .815-.666 1.47-1.47 1.47zm0-4.13a2.661 2.661 0 1 0 0 5.322 2.661 2.661 0 0 0 0-5.323z"/></g><g><path d="M6.206 16.271C4.915 14.722 1.2 10.026 1.2 7.057c0-2.403 1.46-4.995 4.647-4.995 3.247 0 4.995 2.572 4.995 4.995 0 3.495-3.406 7.775-4.637 9.214zm4.23-13.414C9.63 1.953 8.172.87 5.838.87 2.006.87 0 3.989 0 7.067c0 4.031 5.51 10.257 5.75 10.525.108.129.267.208.436.208h.01a.62.62 0 0 0 .437-.198c.06-.06 1.36-1.47 2.68-3.446 1.808-2.7 2.721-5.093 2.721-7.1 0-1.528-.585-3.057-1.598-4.2z"/></g></g></g></g></svg>