<svg xmlns="http://www.w3.org/2000/svg" width="15" height="13" viewBox="0 0 15 13"><g><g><path d="M1.973 4.93c.527.048 1.331.115 2.26.144l-.02 3.37c-.258-.009-.507-.009-.736-.009-.613 0-1.14.02-1.523.029zm7.881-.354c1.236-.383 2.634-1.35 3.534-2.059v8.61A16.891 16.891 0 0 0 9.577 9.21c-1.217-.431-2.768-.632-4.214-.709l.02-3.4c1.857-.009 3.36-.181 4.471-.526zm-3.811 7.355h-.067c-.871-.02-1.465-.393-1.839-1.15a3.305 3.305 0 0 1-.316-1.187c.23 0 .48.01.719.02a.579.579 0 0 0 .23.047c.066 0 .124-.01.19-.038 1.026.048 2.136.153 3.113.364-.067.593-.421 1.944-2.03 1.944zM.823 4.289L.806 9.077a.571.571 0 0 0 .613.574c.01 0 .498-.038 1.254-.047.01.182.067.9.412 1.637.383.814 1.197 1.8 2.863 1.839h.096c.871 0 1.6-.268 2.155-.795.65-.622.9-1.446.996-1.982 2.748.976 4.366 2.403 4.386 2.413a.56.56 0 0 0 .383.144.576.576 0 0 0 .575-.575V1.301c0-.23-.135-.431-.345-.527a.572.572 0 0 0-.623.096c-.02.02-2.317 2.068-4.06 2.605-1.006.306-2.404.469-4.157.469-2.058 0-3.859-.23-3.878-.23a.589.589 0 0 0-.45.134.612.612 0 0 0-.201.44z"/></g></g></svg>