<svg xmlns="http://www.w3.org/2000/svg" width="17" height="18" viewBox="0 0 17 18"><g><g><g><g><path d="M12.987 6.245l-2.25-2.284 1.6-1.6 2.261 2.262zm-4.214 4.214l-2.24.032.032-2.347L9.83 4.879l2.25 2.283zm3.116-9.453L5.477 7.418a.688.688 0 0 0-.192.448l-.043 3.275c0 .171.064.352.192.47.118.117.288.213.448.213h.01l3.17-.064c.17 0 .33-.096.448-.213l6.465-6.465a.65.65 0 0 0 0-.907l-3.169-3.169a.664.664 0 0 0-.917 0z"/></g><g><path d="M7.461 2.863c.352 0 .64-.288.64-.64a.642.642 0 0 0-.64-.64H1.06a.642.642 0 0 0-.64.64v14.615c0 .352.288.64.64.64h11.949c.352 0 .64-.288.64-.64v-5.974a.642.642 0 0 0-.64-.64.642.642 0 0 0-.64.64v5.334H1.7V2.863z"/></g></g></g></g></svg>