<svg xmlns="http://www.w3.org/2000/svg" width="16" height="16" viewBox="0 0 16 16"><g><g><path d="M1.275 12.833l2.643-2.644c.098-.098.255-.088.363.02l1.468 1.468a.597.597 0 0 0 .833 0l4.357-4.357a.605.605 0 0 0 .176-.411.564.564 0 0 0-.176-.411l-1.45-1.47c-.107-.107-.126-.283-.029-.381l2.644-2.644a.178.178 0 0 1 .137-.058c.079 0 .167.039.226.097l.861.862.284.43c.93 2.155.284 4.211-.724 5.21l-5.082 5.102c-.774.773-1.88 1.194-3.134 1.194a5.304 5.304 0 0 1-2.115-.43l-.45-.275-.872-.871c-.058-.06-.058-.147-.058-.186a.463.463 0 0 1 .098-.245zm.049 2.174c.029.029.068.058.107.088l.539.333c.02.01.049.029.068.039a6.51 6.51 0 0 0 2.634.548c1.567 0 2.967-.548 3.956-1.537l5.082-5.082c1.577-1.577 1.968-4.279.95-6.57-.01-.03-.03-.059-.05-.088l-.342-.52c-.02-.029-.049-.058-.068-.087l-.911-.911a1.498 1.498 0 0 0-1.057-.44 1.38 1.38 0 0 0-.97.4L8.618 3.826c-.558.558-.538 1.468.03 2.036L9.686 6.9 6.15 10.434 5.093 9.376a1.332 1.332 0 0 0-1.008-.43c-.372 0-.725.146-.999.41L.442 12.002a1.563 1.563 0 0 0-.44 1.018c-.02.401.127.793.401 1.067z"/></g></g></svg>