<svg xmlns="http://www.w3.org/2000/svg" width="20" height="21" viewBox="0 0 20 21"><g><g><path d="M10.676 18.382a1.645 1.645 0 0 1-2.327-2.327 1.645 1.645 0 0 1 2.327 2.327zM1.97 11.996a1.645 1.645 0 0 1-.003-2.324 1.645 1.645 0 0 1 2.327 2.327c-.64.64-1.682.639-2.324-.003zm5.36 7.407a3.1 3.1 0 0 0 4.374.006 3.1 3.1 0 0 0-.006-4.375 3.187 3.187 0 0 0-1.385-.805l-.047-2.726.359.035c.154.017.3-.008.427-.085l8.36-4.526a.74.74 0 0 0 .297-.982.742.742 0 0 0-.983-.3l-8.154 4.423-.308-.034V9.81l4.603-8.128A.728.728 0 0 0 13.6.963L8.87 9.289a.693.693 0 0 0-.094.368v.239l-2.769-.312c-.017 0-.043-.008-.068 0a3.026 3.026 0 0 0-.634-.923A3.1 3.1 0 0 0 .93 8.653a3.1 3.1 0 0 0 .006 4.375 3.1 3.1 0 0 0 4.375.006 3.059 3.059 0 0 0 .886-1.964l2.598.294.047 2.846c-.564.119-1.102.4-1.537.835-1.186 1.186-1.183 3.152.023 4.358z"/></g></g></svg>