<svg xmlns="http://www.w3.org/2000/svg" width="11" height="10" viewBox="0 0 11 10"><g><g><path d="M7.79 5.857a.356.356 0 0 0-.113.351l.596 2.556-2.246-1.358a.35.35 0 0 0-.37 0L3.411 8.764l.596-2.556a.356.356 0 0 0-.113-.351L1.91 4.14l2.615-.22a.356.356 0 0 0 .298-.215L5.842 1.28 6.86 3.7a.343.343 0 0 0 .298.214l2.615.22zm2.89-2.36l-3.247-.274L6.17.22A.357.357 0 0 0 5.842 0a.349.349 0 0 0-.328.22L4.251 3.223l-3.247.274a.353.353 0 0 0-.31.245.367.367 0 0 0 .107.38L3.262 6.25l-.739 3.17a.363.363 0 0 0 .137.369c.12.083.274.09.394.018L5.842 8.12 8.63 9.807a.35.35 0 0 0 .185.053.375.375 0 0 0 .208-.065.346.346 0 0 0 .138-.37l-.74-3.17 2.461-2.126a.367.367 0 0 0 .108-.381.35.35 0 0 0-.31-.25z"/></g></g></svg>