<svg xmlns="http://www.w3.org/2000/svg" width="17" height="23" viewBox="0 0 17 23"><g><g><path d="M8.545 11.253c3.514 0 6.398 4.01 6.713 9.101H1.832c.316-5.09 3.199-9.1 6.713-9.1zm0-9.536a3.852 3.852 0 0 1 3.845 3.845 3.852 3.852 0 0 1-3.845 3.844 3.852 3.852 0 0 1-3.844-3.844 3.852 3.852 0 0 1 3.844-3.845zM0 21.255c0 .496.405.901.901.901H16.19a.904.904 0 0 0 .901-.9c0-4.987-2.252-9.267-5.421-10.979a5.635 5.635 0 0 0 2.538-4.715A5.66 5.66 0 0 0 8.56-.085c-3.108 0-5.662 2.523-5.662 5.647a5.655 5.655 0 0 0 2.538 4.715C2.253 11.99 0 16.27 0 21.255z"/></g></g></svg>